<?xml version="1.0" encoding="UTF-8"?>
<svg id="_圖層_1" data-name="圖層 1" xmlns="http://www.w3.org/2000/svg" viewBox="0 0 1329.94 475.87">
  <defs>
    <style>
      .cls-1, .cls-2 {
        stroke-width: 1.5px;
      }

      .cls-1, .cls-2, .cls-3 {
        fill: none;
        stroke: #000;
      }

      .cls-1, .cls-3 {
        stroke-miterlimit: 10;
      }

      .cls-4, .cls-5 {
        stroke-width: 0px;
      }

      .cls-2 {
        stroke-miterlimit: 5;
      }

      .cls-3 {
        stroke-width: 2px;
      }

      .cls-5 {
        fill: #cbcbcb;
      }
    </style>
  </defs>
  <path id="_大樓" data-name="大樓" class="cls-3" d="m1312,150.9v18.04h-9V1h-40v144h-231v54h-186v28h-38v-81h-193v81h-82v-81l-13,4v77h-84v-84h-243v84H1v61h4v171.34l22-3.5v-2.36l17,2.71v3.16l22-3.5v-2.36l17,2.71v3.16l20.03-3.19,2.64,18.72h3.33v-3.04l43-7v-1.83h3.19v1.83l43,7v3.04h3.33l2.64-18.72,20.03,3.19v-3.16l17-2.71v2.36l22,3.5v-3.16l17-2.71v2.36l22,3.5v-22.34h57.81v8.5h63v13.84l22-3.5v-2.36l17,2.71v3.16l22-3.5v-2.36l17,2.71v3.16l20.03-3.19,2.64,18.72h3.33v-3.04l43-7v-1.83h3.19v1.83l43,7v3.04h3.33l2.64-18.72,20.03,3.19v-3.16l17-2.71v2.36l22,3.5v-3.16l17-2.71v2.36l22,3.5v-22.34h120.81v22.34l22-3.5v-2.36l17,2.71v3.16l22-3.5v-2.36l17,2.71v3.16l20.03-3.19,2.64,18.72h3.33v-3.04l43-7v-1.83h3.19v1.83l43,7v3.04h3.33l2.64-18.72,20.03,3.19v-3.16l17-2.71v2.36l22,3.5v-3.16l17-2.71v2.36l22,3.5v-13.84h62.81v-8.5h55v28h69V146l-13,4.9Z"/>
  <rect class="cls-5" x="10.49" y="289.18" width="142" height="142"/>
  <rect class="cls-5" x="155.49" y="289.18" width="142" height="142"/>
  <rect class="cls-5" x="302.99" y="339.18" width="58" height="92"/>
  <rect class="cls-5" x="363.99" y="365.18" width="63" height="75"/>
  <rect class="cls-5" x="197.24" y="147.18" width="234.5" height="82"/>
  <rect class="cls-5" x="618.24" y="150.18" width="186.5" height="82"/>
  <polygon class="cls-5" points="1093.49 158.18 1093.49 212.18 1111.49 212.18 1111.49 240.18 1266.49 240.18 1266.49 158.18 1093.49 158.18"/>
  <rect class="cls-5" x="432.49" y="289.18" width="142" height="142"/>
  <rect class="cls-5" x="577.49" y="289.18" width="142" height="142"/>
  <polygon class="cls-5" points="760.99 289.18 760.99 324.68 725.99 324.68 725.99 431.18 835.99 431.18 835.99 289.18 760.99 289.18"/>
  <rect class="cls-5" x="842.49" y="289.18" width="142" height="142"/>
  <rect class="cls-5" x="987.49" y="289.18" width="142" height="142"/>
  <rect class="cls-5" x="1138.49" y="289.18" width="36" height="52"/>
  <rect class="cls-5" x="1200.49" y="339.18" width="58" height="92"/>
  <rect class="cls-5" x="1134.49" y="365.18" width="63" height="75"/>
  <g>
    <path class="cls-4" d="m752.53,371.6c1.66,2.92,4.9,5.14,7.98,6.08l-.04.22c-.92.2-1.66.98-1.98,2.14-3.04-1.68-5.12-4.46-6.36-8.44h-.02v9.32c0,.26-1.04.84-1.94.84h-.46v-7.6c-1.9,2.56-4.62,4.68-8.04,6.18l-.18-.24c3.06-2.12,5.54-5.4,6.84-8.5h-6.4l-.18-.56h7.96v-3.66h-6.16l-.14-.56h6.3v-3.82l3.14.3c-.04.28-.2.48-.74.56v2.96h2.88l1.34-1.68s1.52,1.12,2.42,1.92c-.06.22-.28.32-.54.32h-6.1v3.66h4.2l1.4-1.74s1.56,1.16,2.52,1.98c-.06.22-.28.32-.58.32h-7.12Z"/>
    <path class="cls-4" d="m777.61,368.25c-.08.26-.3.44-.76.44-.18.56-.38,1.08-.62,1.54,4.62,1.34,3,4.86,1.08,3.52-.22-.94-.82-1.94-1.46-2.78-.68,1.2-1.54,2.12-2.56,2.8,1.74,2.26,4.4,3.88,7.12,4.62l-.04.24c-.9.2-1.62.94-1.88,2.06-3.1-1.52-5.16-4.1-6.4-7.9v8.12c0,.26-1.04.86-1.94.86h-.46v-6.04c-2,2.06-4.84,3.92-7.96,5.02l-.16-.26c3.48-1.9,6.7-5.46,8.12-9.22v-4.34h-7.64l-.16-.58h7.8v-3.3l3.12.32c-.04.28-.18.48-.72.56v2.42h4.18l1.38-1.7s1.52,1.16,2.48,1.96c-.06.22-.28.32-.58.32h-7.46v4.88c.24.54.54,1.06.9,1.54.86-1.5,1.46-3.56,1.64-5.8l2.98.7Zm-9.36.14c-.08.26-.34.44-.76.44-.2.52-.42,1.02-.66,1.48,3.52,1.32,1.64,4.08.04,2.7-.04-.58-.26-1.22-.54-1.8-.98,1.56-2.2,2.74-3.62,3.56l-.24-.18c1.32-1.66,2.44-4.2,2.9-7.02l2.88.82Z"/>
    <path class="cls-4" d="m797.81,377.7s1.62,1.24,2.6,2.1c-.06.22-.26.32-.58.32h-18.02l-.16-.56h8.02v-12.84h-6.54l-.16-.58h12.18l1.44-1.84s1.62,1.24,2.6,2.1c-.06.22-.3.32-.58.32h-6.36v12.84h4.1l1.46-1.86Z"/>
    <path class="cls-4" d="m818.55,378.96s1.38,1.1,2.22,1.88c-.06.22-.28.32-.56.32h-11.9l-.16-.58h5.06v-3.66h-3.9l-.16-.56h4.06v-2.72c-1.2.12-2.42.18-3.58.22-.1.88-1.04,1.36-1.9.58-.06-.94-.48-2-.96-2.88v9.54c-.02.14-.76.66-1.88.66h-.42v-7.32c-.82,1.16-1.78,2.2-2.9,3.1l-.22-.2c1.42-2.08,2.36-4.92,2.9-7.62h-2.52l-.16-.58h2.9v-3c-.96.14-1.96.26-2.92.34l-.08-.24c2.06-.8,4.54-2.24,5.78-3.26l2.62,2.2c-.26.22-.68.26-1.32.06-.5.16-1.12.32-1.78.46v3.44h.22l1.04-1.44s1.14,1,1.82,1.7c-.06.22-.26.32-.54.32h-2.54v1.24c2,.72,2.76,1.74,2.86,2.56,2.46-.66,5.42-1.78,7.14-2.68h-.12v-.86h-4.48v.54c0,.2-.96.7-1.86.7h-.32v-7.46l2.28.92h4.2l1.04-1.16,2.2,1.68c-.12.16-.38.32-.78.42v4.6c-.02.14-.86.5-1.6.6l2.26,2.14c-.24.22-.7.22-1.32-.02-.78.16-1.7.3-2.72.44v2.98h1.26l1.2-1.56s1.34,1.06,2.14,1.8c-.04.22-.26.32-.54.32h-4.06v3.66h1.8l1.2-1.62Zm-1.9-9.54v-4.18h-4.48v4.18h4.48Z"/>
  </g>
  <g>
    <path class="cls-4" d="m899.13,360.6c.8-.24,1.6-.36,2.52-.36,3.16,0,5.18,1.56,5.18,4.36,0,2.96-2.28,4.7-5.56,4.7-2.58,0-4.16-1.24-4.42-3.34.2-.54.66-.8,1.18-.8.72,0,1.12.4,1.3,1.5l.34,1.72c.36.12.72.18,1.18.18,1.98,0,3.2-1.38,3.2-3.66s-1.18-3.56-3.1-3.56c-.78,0-1.5.08-2.24.34l-.58-.3.48-6.66h7.74v2.12h-6.96l-.26,3.76Z"/>
    <path class="cls-4" d="m917.91,368.36v.62h-8.58v-.62l2.96-.36c.04-1.24.06-2.48.06-3.72v-8.12l-2.6.26v-.74l5.04-1.2.28.22-.08,3.22v6.36c0,1.24.02,2.48.06,3.72l2.86.36Z"/>
    <path class="cls-4" d="m930.13,361.88c0,5.24-2.38,7.42-4.94,7.42s-4.94-2.18-4.94-7.42,2.34-7.48,4.94-7.48,4.94,2.18,4.94,7.48Zm-4.94,6.68c1.24,0,2.38-1.44,2.38-6.68s-1.14-6.76-2.38-6.76-2.4,1.44-2.4,6.76,1.12,6.68,2.4,6.68Z"/>
  </g>
  <g>
    <path class="cls-4" d="m1044.13,360.6c.8-.24,1.6-.36,2.52-.36,3.16,0,5.18,1.56,5.18,4.36,0,2.96-2.28,4.7-5.56,4.7-2.58,0-4.16-1.24-4.42-3.34.2-.54.66-.8,1.18-.8.72,0,1.12.4,1.3,1.5l.34,1.72c.36.12.72.18,1.18.18,1.98,0,3.2-1.38,3.2-3.66s-1.18-3.56-3.1-3.56c-.78,0-1.5.08-2.24.34l-.58-.3.48-6.66h7.74v2.12h-6.96l-.26,3.76Z"/>
    <path class="cls-4" d="m1063.45,361.88c0,5.24-2.38,7.42-4.94,7.42s-4.94-2.18-4.94-7.42,2.34-7.48,4.94-7.48,4.94,2.18,4.94,7.48Zm-4.94,6.68c1.24,0,2.38-1.44,2.38-6.68s-1.14-6.76-2.38-6.76-2.4,1.44-2.4,6.76,1.12,6.68,2.4,6.68Z"/>
    <path class="cls-4" d="m1066.29,368.8c3.6-1.22,5.42-3.2,5.96-6.32-.68.58-1.64.92-2.8.92-2.5,0-4.4-1.62-4.38-4.38,0-2.94,2.24-4.62,4.96-4.62,3.22,0,5.1,2.24,5.1,5.96,0,4.44-3.18,7.9-8.68,9.04l-.16-.6Zm6.06-7.04c.06-.5.08-1.02.08-1.56,0-3.68-.98-5.08-2.4-5.08-1.26,0-2.32,1.14-2.32,3.58s1.08,3.72,2.74,3.72c.74,0,1.34-.22,1.9-.66Z"/>
  </g>
  <g>
    <path class="cls-4" d="m641.09,354.89c-3.9.92-6.08,3.26-6.54,6.58.88-.86,2-1.3,3.26-1.3,2.52,0,4.04,1.78,4.04,4.4,0,2.82-1.92,4.72-4.88,4.72-3.18,0-5.2-2.24-5.2-6.06,0-4.52,3.6-8.26,9.2-8.84l.12.5Zm-1.88,9.86c0-2.3-.84-3.46-2.34-3.46-.82,0-1.68.22-2.4.9-.02.22-.02.44-.02.66,0,3.9.98,5.7,2.56,5.7,1.26,0,2.2-1.16,2.2-3.8Z"/>
    <path class="cls-4" d="m653.45,361.88c0,5.24-2.38,7.42-4.94,7.42s-4.94-2.18-4.94-7.42,2.34-7.48,4.94-7.48,4.94,2.18,4.94,7.48Zm-4.94,6.68c1.24,0,2.38-1.44,2.38-6.68s-1.14-6.76-2.38-6.76-2.4,1.44-2.4,6.76,1.12,6.68,2.4,6.68Z"/>
    <path class="cls-4" d="m656.29,368.8c3.6-1.22,5.42-3.2,5.96-6.32-.68.58-1.64.92-2.8.92-2.5,0-4.4-1.62-4.38-4.38,0-2.94,2.24-4.62,4.96-4.62,3.22,0,5.1,2.24,5.1,5.96,0,4.44-3.18,7.9-8.68,9.04l-.16-.6Zm6.06-7.04c.06-.5.08-1.02.08-1.56,0-3.68-.98-5.08-2.4-5.08-1.26,0-2.32,1.14-2.32,3.58s1.08,3.72,2.74,3.72c.74,0,1.34-.22,1.9-.66Z"/>
  </g>
  <g>
    <path class="cls-4" d="m496.09,354.89c-3.9.92-6.08,3.26-6.54,6.58.88-.86,2-1.3,3.26-1.3,2.52,0,4.04,1.78,4.04,4.4,0,2.82-1.92,4.72-4.88,4.72-3.18,0-5.2-2.24-5.2-6.06,0-4.52,3.6-8.26,9.2-8.84l.12.5Zm-1.88,9.86c0-2.3-.84-3.46-2.34-3.46-.82,0-1.68.22-2.4.9-.02.22-.02.44-.02.66,0,3.9.98,5.7,2.56,5.7,1.26,0,2.2-1.16,2.2-3.8Z"/>
    <path class="cls-4" d="m507.91,368.36v.62h-8.58v-.62l2.96-.36c.04-1.24.06-2.48.06-3.72v-8.12l-2.6.26v-.74l5.04-1.2.28.22-.08,3.22v6.36c0,1.24.02,2.48.06,3.72l2.86.36Z"/>
    <path class="cls-4" d="m520.13,361.88c0,5.24-2.38,7.42-4.94,7.42s-4.94-2.18-4.94-7.42,2.34-7.48,4.94-7.48,4.94,2.18,4.94,7.48Zm-4.94,6.68c1.24,0,2.38-1.44,2.38-6.68s-1.14-6.76-2.38-6.76-2.4,1.44-2.4,6.76,1.12,6.68,2.4,6.68Z"/>
  </g>
  <g>
    <path class="cls-4" d="m220.17,365.22h-2.26v3.76h-2.38v-3.76h-5.88v-1.42l6.44-9.18h1.82v8.84h2.26v1.76Zm-4.64-1.76v-6.78l-4.78,6.78h4.78Z"/>
    <path class="cls-4" d="m231.45,361.88c0,5.24-2.38,7.42-4.94,7.42s-4.94-2.18-4.94-7.42,2.34-7.48,4.94-7.48,4.94,2.18,4.94,7.48Zm-4.94,6.68c1.24,0,2.38-1.44,2.38-6.68s-1.14-6.76-2.38-6.76-2.4,1.44-2.4,6.76,1.12,6.68,2.4,6.68Z"/>
    <path class="cls-4" d="m234.29,368.8c3.6-1.22,5.42-3.2,5.96-6.32-.68.58-1.64.92-2.8.92-2.5,0-4.4-1.62-4.38-4.38,0-2.94,2.24-4.62,4.96-4.62,3.22,0,5.1,2.24,5.1,5.96,0,4.44-3.18,7.9-8.68,9.04l-.16-.6Zm6.06-7.04c.06-.5.08-1.02.08-1.56,0-3.68-.98-5.08-2.4-5.08-1.26,0-2.32,1.14-2.32,3.58s1.08,3.72,2.74,3.72c.74,0,1.34-.22,1.9-.66Z"/>
  </g>
  <g>
    <path class="cls-4" d="m75.17,365.22h-2.26v3.76h-2.38v-3.76h-5.88v-1.42l6.44-9.18h1.82v8.84h2.26v1.76Zm-4.64-1.76v-6.78l-4.78,6.78h4.78Z"/>
    <path class="cls-4" d="m85.91,368.36v.62h-8.58v-.62l2.96-.36c.04-1.24.06-2.48.06-3.72v-8.12l-2.6.26v-.74l5.04-1.2.28.22-.08,3.22v6.36c0,1.24.02,2.48.06,3.72l2.86.36Z"/>
    <path class="cls-4" d="m98.13,361.88c0,5.24-2.38,7.42-4.94,7.42s-4.94-2.18-4.94-7.42,2.34-7.48,4.94-7.48,4.94,2.18,4.94,7.48Zm-4.94,6.68c1.24,0,2.38-1.44,2.38-6.68s-1.14-6.76-2.38-6.76-2.4,1.44-2.4,6.76,1.12,6.68,2.4,6.68Z"/>
  </g>
  <g>
    <path class="cls-4" d="m291.25,180.79s1.6,1.16,2.56,1.98c-.06.22-.28.32-.56.32h-17.78l-.18-.56h8.5c-.22-.92-.98-1.9-1.68-2.46l.14-.12c3.82-.2,4.14,1.82,3.24,2.58h4.38l1.38-1.74Zm.04,7.84l2.32,1.72c-.12.16-.4.34-.82.42v5.44c0,1.5-.34,2.36-2.94,2.56-.06-.68-.14-1.2-.42-1.52-.28-.32-.66-.58-1.6-.74v-.26s1.76.12,2.22.12c.3,0,.38-.14.38-.38v-5.62h-11.68v7.62c0,.24-1.02.76-1.98.76h-.34v-9.92l2.5.98h11.3l1.06-1.18Zm-3.96.42v-.9h-5.52v.44c0,.18-1.04.68-2,.68h-.32v-5.56l2.44.96h5.2l1.06-1.18,2.28,1.72c-.12.16-.38.34-.78.42v2.94c-.02.12-1.22.48-1.96.48h-.4Zm.9,6.8c-.02.14-1.06.58-1.8.58h-.36v-.98h-3.14v.64c0,.18-.98.64-1.84.64h-.3v-5.66l2.22.88h2.86l1-1.04,2.1,1.54c-.12.16-.36.32-.74.4v3Zm-.9-8.26v-2.34h-5.52v2.34h5.52Zm-1.26,7.3v-2.36h-3.14v2.36h3.14Z"/>
    <path class="cls-4" d="m313.53,184.95c-.14.16-.4.36-.82.44v6.58c-.02.16-1.26.6-2.08.6h-.42v-1.68h-4.5v7c0,.26-1.08.86-2.04.86h-.46v-7.86h-4.46v1.18c0,.24-1.1.8-2.12.8h-.36v-9.52l2.66,1.04h4.28v-4.38l3.24.3c-.04.28-.2.5-.74.58v3.5h4.32l1.12-1.24,2.38,1.8Zm-10.32,5.36v-5.34h-4.46v5.34h4.46Zm7,0v-5.34h-4.5v5.34h4.5Z"/>
    <path class="cls-4" d="m331.87,192.46s1.24.94,1.98,1.62c-.06.22-.26.32-.52.32h-4.1v1.84c0,1.54-.38,2.36-3.12,2.58-.06-.64-.18-1.12-.5-1.42-.36-.32-.86-.56-1.98-.72v-.3s2.44.16,2.9.16c.32,0,.42-.08.42-.34v-1.8h-11.66l-.18-.56h11.84v-1.42l2.94.26c-.04.28-.24.42-.66.5v.66h1.58l1.06-1.38Zm-12.9-3.06c1.44.82,3.94,1,8.18,1,2.34,0,4.38,0,6.72-.12v.24c-.88.16-1.36.96-1.48,1.76h-5.98c-4.28,0-6-.62-7.62-2.16-.32-.32-.56-.28-.74.02-.28.44-.8,1.18-1.2,1.96.04.18-.02.3-.2.38l-1.4-2.1c.98-.34,2.34-1.02,2.84-1.14.6-.7,1.14-1.62,1.44-2.48h-1.06l-.72.62-1.7-1.32c.2-.14.5-.28.8-.36.46-.58,1.02-1.36,1.42-1.98h-2.64l-.18-.56h2.9l.58-.58c-.12,0-.22-.02-.34-.04-.54-.7-1.74-1.56-2.64-1.94l.16-.2c3.68-.78,4.3,1.34,3.4,2l1.68,1.5c-.16.2-.54.28-.98.32-.38.54-.94,1.34-1.42,1.96h.72l1.06-1.02,1.64,1.36v-3.26l2.28.9h1.32c.04-.4.1-.86.12-1.26h-4.96l-.16-.56h3.66c-.1-.04-.18-.1-.28-.16-.06-.72-.54-1.58-1.02-2.04l.16-.12c3.22.02,3.14,1.84,2.18,2.32h2.42c.2-.72.44-1.7.56-2.38l2.9.6c-.04.26-.28.42-.74.42-.52.42-1.34.94-2.08,1.36h1.94l1.1-1.36s1.26.92,2.04,1.6c-.06.22-.26.32-.54.32h-4.88c-.4.44-.88.9-1.28,1.26h2.5l1.02-1.06,2.08,1.56c-.12.12-.36.28-.7.36v4.54c-.02.16-1.08.62-1.82.62h-.38v-.72h-5.28c-.06.22-.96.66-1.86.66h-.3v-3.4c-.14.08-.32.12-.64.12-.56.94-1.54,1.86-2.68,2.52l.08.04Zm-.02,5.34c5.68-.2,4.36,4.08,2.12,2.92-.38-.98-1.4-2.14-2.26-2.78l.14-.14Zm5.42-10.02v1h5.28v-1h-5.28Zm5.28,2.58v-1.02h-5.28v1.02h5.28Zm0,1.6v-1.04h-5.28v1.04h5.28Z"/>
    <path class="cls-4" d="m350.99,188.62v3.06h.22l.92-1.32s1.06.92,1.64,1.58c-.04.22-.24.32-.48.32h-2.3v5.8c0,.12-.62.5-1.66.5h-.36v-6.3h-1.72l-.16-.58h1.88v-3.06h-2.16c-.12,5.92-.4,7.88-1.14,8.74-.54.62-1.3.88-2.1.88,0-.58-.04-1-.24-1.26-.22-.26-.58-.44-1.12-.58l.02-.3c.46.04,1.14.08,1.46.08s.46-.06.64-.24c.56-.58.74-3.3.82-10.56h-.84v.96c-.02,4.46-.76,9.56-4.8,12.44l-.24-.2c2.7-3.32,3.1-8.02,3.1-12.28v-.92h-.88l-.12-.42c-.12.04-.24.06-.4.06-.42.88-1.14,2.02-1.96,3h.64l.86-1.24s.96.88,1.5,1.5c-.04.22-.24.32-.5.32h-2.28v2.86h.1l.88-1.28s.98.9,1.56,1.52c-.04.22-.24.32-.52.32h-2.04c-.08,2.26-.62,5-3.66,6.78l-.2-.2c1.64-1.96,1.94-4.4,1.98-6.58h-1.96l-.16-.56h2.12v-2.86h-2.22l-.16-.58h3.6c.32-1.24.56-2.86.66-4.08l2.48.68c-.02.06-.04.12-.08.18h.76v-4.78l2.64.26c-.04.28-.2.48-.7.56v3.96h.62l.98-1.04,1.72,1.5c-.12-.42-.26-.8-.4-1.14l.24-.08c3.92,1.94,1.88,4.94.44,3.42.04-.68-.08-1.44-.28-2.14-.16.16-.36.26-.78.32,0,.86-.02,1.66-.04,2.4h3.38c.4-1.26.76-2.9.92-4.14l2.56.7c-.06.24-.28.4-.72.4-.52.92-1.36,2.06-2.26,3.04h.78l.94-1.3s1.06.92,1.68,1.56c-.06.22-.24.32-.52.32h-2.58Zm-15.88-5.44h2.8c-.16-.06-.34-.16-.52-.32.04-.94-.38-2-.82-2.7l.2-.1c3.18.82,2.86,2.76,1.84,3.12h.86l.88-1.22s1.04.86,1.66,1.46c-.04.22-.24.32-.52.32h-6.22l-.16-.56Zm.98.76c3.6,2.12,1.64,4.92.32,3.44.1-1.08-.22-2.42-.56-3.34l.24-.1Zm10.22-.78h3.48c-.24-.04-.5-.16-.76-.38.02-.94-.4-2.02-.88-2.7l.2-.12c3.54.82,3,3.02,1.76,3.2h1.14l.96-1.32s1.1.92,1.72,1.58c-.04.22-.24.32-.5.32h-6.96l-.16-.58Z"/>
  </g>
  <g>
    <path class="cls-4" d="m685.37,189.96v10.94c0,.3-.84.86-1.84.86h-.38v-18.24l2.32,1h2.62l.98-1.08,2.08,1.58c-.12.14-.36.3-.74.38v4.88c-.02.16-1.04.62-1.74.62h-.38v-.94h-2.92Zm0-4.86v1.84h2.92v-1.84h-2.92Zm2.92,4.3v-1.9h-2.92v1.9h2.92Zm5.9,6.62v4.28c-.02.1-.6.46-1.6.46h-.36v-4.74h-1.82c-.22,1.76-1,3.68-3.94,4.94l-.2-.22c1.66-1.38,2.12-3.08,2.24-4.72h-2.34l-.16-.58h2.54v-2.88h-1.92l-.16-.56h7.24l1.04-1.36s1.2.94,1.9,1.62c-.04.2-.24.3-.52.3h-1.94v2.88h.06l1-1.36s1.12.94,1.78,1.62c-.06.22-.26.32-.54.32h-2.3Zm-1.96-.58v-2.88h-1.76v2.26c0,.2,0,.4-.02.62h1.78Zm8.38-10.38c-.14.16-.42.34-.82.4v13.62c0,1.58-.32,2.46-2.74,2.68-.06-.74-.14-1.3-.36-1.62-.26-.36-.6-.6-1.4-.76v-.26s1.5.08,1.86.08c.3,0,.38-.12.38-.38v-8.86h-3.04v.14c0,.2-.94.66-1.84.66h-.32v-7.14l2.24.9h2.76l1.04-1.22,2.24,1.76Zm-6.12.04v1.84h3.04v-1.84h-3.04Zm3.04,4.3v-1.9h-3.04v1.9h3.04Z"/>
    <path class="cls-4" d="m706.47,189.74c3.92,1.74,2.12,4.6.74,3.24,0-.88-.34-1.92-.74-2.72v10.74c0,.24-.88.76-1.66.76h-.4v-7.86c-.6,1.14-1.34,2.18-2.18,3.14l-.26-.24c1.14-2.3,1.82-5.36,2.18-8.26h-1.88l-.16-.58h2.3v-5l2.8.28c-.04.28-.2.48-.74.56v4.1l.92-1.4s1.08,1.04,1.68,1.72c-.06.22-.24.32-.52.32h-2.08v1.2Zm1.42,11.16c1.22-1.3,2.24-3.34,2.68-4.78l2.58,1.32c-.08.2-.28.32-.74.26-.96,1.22-2.5,2.62-4.32,3.42l-.2-.22Zm.76-15.9l-.16-.58h9.08l1.18-1.52s1.34,1.04,2.14,1.78c-.04.22-.24.32-.54.32h-3.68v2.02h.88l.96-1.02,2.1,1.52c-.14.16-.44.34-.84.42v3.48c-.02.1-.82.38-1.46.44.46.34,1.14.86,1.64,1.28-.06.22-.26.32-.54.32h-9.62l-.16-.58h7.02l1.1-1.3v-.4h-6.54v.68c0,.18-.86.6-1.66.6h-.28v-6.28l2.06.84h.96v-2.02h-3.64Zm10.14,8.7s1.34.98,2.18,1.7c-.06.22-.28.32-.56.32h-4.74v5.52c0,.08-.7.44-1.86.44h-.42v-5.96h-4.7l-.16-.56h9.1l1.16-1.46Zm-7.58-3.08h1.08v-3.02h-1.08v3.02Zm3.82-5.62h-1.08v2.02h1.08v-2.02Zm-1.08,5.62h1.08v-3.02h-1.08v3.02Zm2.44,6.02c6.04,1.2,4.48,5.46,2.3,4.06-.36-1.38-1.5-2.9-2.46-3.9l.16-.16Zm.28-9.04v3.02h1.08v-3.02h-1.08Z"/>
    <path class="cls-4" d="m740.77,186.49c-.14.18-.34.22-.72.24-.56.62-1.5,1.44-2.26,1.9l.08.08c-.04.22-.26.32-.54.32h-6.48l1.86.92c-.1.2-.34.34-.78.28-1.18.76-3.18,1.68-5,2.32,2.16,0,5.34-.06,8.66-.16-.56-.7-1.2-1.36-1.76-1.86l.18-.14c6.5.96,5.32,5.42,3,4.22-.24-.56-.62-1.18-1.08-1.78-1.46.3-3.38.64-5.64,1l3.08.24c-.04.3-.18.48-.7.56v2.1h2.46l1.26-1.58s1.46,1.06,2.36,1.82c-.06.22-.28.32-.56.32h-5.52v2.96h4.22l1.34-1.66s1.52,1.12,2.42,1.92c-.06.22-.28.32-.56.32h-17.6l-.18-.58h7.86v-2.96h-5.68l-.16-.56h5.84v-2.88c-1.26.2-2.6.42-4.02.62-.18.28-.36.46-.58.56l-1.04-2.54s.46-.08.7-.18c1.44-.52,3.34-2.14,4.32-3.28h-4.32l-.16-.58h9.34l1.22-1.5s1.1.8,1.94,1.5c.06-.62.12-1.48.16-2.16h-12.34c.12,1.4-.38,2.38-1.06,2.82-.6.4-1.56.26-1.84-.48-.22-.7.18-1.26.76-1.56.7-.38,1.48-1.38,1.44-2.48h.28c.14.4.26.76.32,1.12h5.88c-.12-.04-.24-.1-.36-.18-.1-.9-.74-1.88-1.4-2.38l.14-.12c4.04-.22,3.92,2.16,2.66,2.68h5.32l1.18-1.2,2.06,1.98Z"/>
  </g>
  <g>
    <path class="cls-4" d="m1176.19,192.87c-.14.16-.42.32-.82.42v15.58c-.04.18-1.06.72-1.88.72h-.34v-1.24h-12.38v.58c0,.3-.86.84-1.8.84h-.38v-18.42l2.38,1h11.98l1.1-1.24,2.14,1.76Zm-3.04,14.9v-14.86h-12.38v14.86h12.38Zm-2.04-10.68s1.12.82,1.82,1.44c-.04.22-.26.32-.54.32h-10.98l-.16-.58h4.64v-1.34h-1.08v.24c0,.16-.86.58-1.66.58h-.28v-4.28l2.04.82h3.92l.88-.96,1.92,1.42c-.1.12-.32.28-.64.32v1.98c-.02.14-1.02.48-1.64.48h-.34v-.6h-1.12v1.34h2.24l.98-1.18Zm-.56,1.88l1.82,1.4c-.1.1-.34.24-.66.3v5.78c-.02.14-.94.52-1.56.52h-.3v-.92h-5.78v.64c0,.2-.8.6-1.58.6h-.28v-8.2l1.98.8h5.48l.88-.92Zm-.7,6.5v-5.02h-5.78v5.02h5.78Zm-.84-9.1v-1.52h-4.2v1.52h4.2Zm.52,5.52c-.06.1-.28.22-.5.26v2.28c-.02.14-.72.44-1.14.44h-.22v-.68h-1.42v.36c0,.1-.62.42-1.16.42h-.2v-4.08l1.44.62h1.2l.66-.66,1.34,1.04Zm-1.86,1.72v-1.52h-1.42v1.52h1.42Z"/>
    <path class="cls-4" d="m1183.35,195.75s1.38,1.16,2.18,1.94c-.06.22-.26.32-.56.32h-7.16l-.16-.58h4.48l1.22-1.68Zm8.14-1.5c-.04.24-.24.48-.68.5-.06.3-.12.58-.2.86.94.76,2.72,1.34,5.66,1.62v.24c-1.02.24-1.56.66-1.62,1.86-.94-.22-1.72-.54-2.36-.9l2.02,1.5c-.12.18-.32.3-.78.38v5.7c0,.1-.8.54-2.1.54h-.46v-.56h-6.26l2.4,1.7c-.2.2-.56.28-1.18.1-1.84.96-4.82,1.76-7.76,2.04l-.08-.24c2.44-.82,5-2.32,6.28-3.6h-1.46v.4c0,.18-.74.58-2,.58h-.44v-8.4l2.66,1h7.76l1.18-1.32c-.84-.54-1.4-1.16-1.8-1.84-.7,1.18-2.24,2.2-6.12,2.92l-.16-.36c4-1.38,4.48-2.92,4.6-4.96l2.9.24Zm-13.04-.54l-.16-.58h3.04l1.18-1.62s1.34,1.12,2.12,1.88c-.06.22-.26.32-.54.32h-5.64Zm4.46,6.44v1.4h8.06v-1.4h-8.06Zm0,1.96v1.38h8.06v-1.38h-8.06Zm8.06,3.32v-1.38h-8.06v1.38h8.06Zm-6.94-9.72c1.12-1.12,2.12-3.1,2.54-4.84l3.14.52c-.04.22-.2.32-.7.32-.26.42-.58.84-.94,1.26h4.84l1.14-1.14,2,1.9c-.14.18-.36.2-.76.24-.64.6-1.74,1.42-2.58,1.88l-.2-.12c.18-.58.4-1.46.52-2.18h-5.5c-.94.96-2.08,1.8-3.32,2.34l-.18-.18Zm3.92,10.72c10.82.2,6.86,4.62,4.74,2.88-.84-.84-2.34-1.92-4.8-2.62l.06-.26Z"/>
    <path class="cls-4" d="m1216.27,194.49c-.14.18-.34.22-.72.24-.56.62-1.5,1.44-2.26,1.9l.08.08c-.04.22-.26.32-.54.32h-6.48l1.86.92c-.1.2-.34.34-.78.28-1.18.76-3.18,1.68-5,2.32,2.16,0,5.34-.06,8.66-.16-.56-.7-1.2-1.36-1.76-1.86l.18-.14c6.5.96,5.32,5.42,3,4.22-.24-.56-.62-1.18-1.08-1.78-1.46.3-3.38.64-5.64,1l3.08.24c-.04.3-.18.48-.7.56v2.1h2.46l1.26-1.58s1.46,1.06,2.36,1.82c-.06.22-.28.32-.56.32h-5.52v2.96h4.22l1.34-1.66s1.52,1.12,2.42,1.92c-.06.22-.28.32-.56.32h-17.6l-.18-.58h7.86v-2.96h-5.68l-.16-.56h5.84v-2.88c-1.26.2-2.6.42-4.02.62-.18.28-.36.46-.58.56l-1.04-2.54s.46-.08.7-.18c1.44-.52,3.34-2.14,4.32-3.28h-4.32l-.16-.58h9.34l1.22-1.5s1.1.8,1.94,1.5c.06-.62.12-1.48.16-2.16h-12.34c.12,1.4-.38,2.38-1.06,2.82-.6.4-1.56.26-1.84-.48-.22-.7.18-1.26.76-1.56.7-.38,1.48-1.38,1.44-2.48h.28c.14.4.26.76.32,1.12h5.88c-.12-.04-.24-.1-.36-.18-.1-.9-.74-1.88-1.4-2.38l.14-.12c4.04-.22,3.92,2.16,2.66,2.68h5.32l1.18-1.2,2.06,1.98Z"/>
  </g>
  <g>
    <rect class="cls-1" x="392.89" y="391.89" width="5.19" height="5.19"/>
    <polyline class="cls-1" points="392.96 413.46 390.75 400.49 400.22 400.49 398.02 413.46"/>
  </g>
  <g>
    <rect class="cls-1" x="1163.39" y="391.89" width="5.19" height="5.19"/>
    <polyline class="cls-1" points="1161.25 413.46 1163.45 400.49 1168.51 400.49 1170.73 413.36"/>
  </g>
  <g>
    <path class="cls-4" d="m929.2,220.93l-5.31-6.85v-.18l5.31-6.85h2.85l-5.31,6.85v.18l5.31,6.85h-2.85Z"/>
    <path class="cls-4" d="m937.28,210.07c-.14.85-.59,1.17-1.21,1.17-.41,0-.77-.22-.95-.59.18-1.98,1.93-2.84,3.94-2.84,2.63,0,4,1.3,4,3.15,0,1.51-.94,2.7-3.13,3.21,2.54.4,3.53,1.64,3.53,3.35,0,2.18-1.82,3.71-4.7,3.71-2.43,0-3.89-1.03-4.12-3.01.2-.5.61-.72,1.03-.72.67,0,1.03.34,1.21,1.4l.32,1.55c.29.07.58.11.88.11,1.93,0,2.93-1.04,2.93-2.99s-1.01-2.97-2.93-2.97h-.79v-.72h.67c1.67,0,2.77-.95,2.77-2.86,0-1.66-.83-2.56-2.29-2.56-.25,0-.5.04-.77.09l-.38,1.53Z"/>
    <path class="cls-4" d="m949.39,208.33c-.05,1.76-.05,3.56-.05,5.46h2.76l.27-1.96h.85v4.68h-.85l-.27-2.03h-2.76c0,2,0,3.85.05,5.65l1.93.18v.63h-6.23v-.63l1.71-.16c.04-1.78.04-3.6.04-5.44v-.88c0-1.8,0-3.62-.04-5.44l-1.71-.16v-.65h10.16l.02,3.53h-.97l-.68-2.77h-4.21Z"/>
  </g>
  <g>
    <path class="cls-4" d="m1280.71,87.54v.56h-7.72v-.56l2.67-.32c.04-1.12.05-2.23.05-3.35v-7.31l-2.34.23v-.67l4.54-1.08.25.2-.07,2.9v5.73c0,1.12.02,2.23.05,3.35l2.57.32Z"/>
    <path class="cls-4" d="m1287.09,75.49c-.05,1.76-.05,3.56-.05,5.46h2.75l.27-1.96h.85v4.68h-.85l-.27-2.03h-2.75c0,2,0,3.85.05,5.65l1.93.18v.63h-6.23v-.63l1.71-.16c.04-1.78.04-3.6.04-5.44v-.88c0-1.8,0-3.62-.04-5.44l-1.71-.16v-.65h10.16l.02,3.53h-.97l-.68-2.77h-4.21Z"/>
  </g>
  <path class="cls-4" d="m1275.63,67.44l6.85-5.31h.18l6.85,5.31v2.85l-6.85-5.31h-.18l-6.85,5.31v-2.85Z"/>
  <polyline class="cls-1" points="1220.99 395.68 1220.99 390.01 1226.65 390.01 1226.65 384.34 1232.32 384.34 1232.32 378.68 1237.99 378.68"/>
  <polyline class="cls-1" points="323.49 395.68 323.49 390.01 329.15 390.01 329.15 384.34 334.82 384.34 334.82 378.68 340.49 378.68"/>
  <g>
    <g>
      <line class="cls-2" x1="1151.37" y1="312.04" x2="1151.37" y2="323.37"/>
      <polygon class="cls-4" points="1147.85 313.07 1151.37 306.99 1154.88 313.07 1147.85 313.07"/>
    </g>
    <g>
      <line class="cls-2" x1="1161.61" y1="318.31" x2="1161.61" y2="306.99"/>
      <polygon class="cls-4" points="1165.12 317.28 1161.61 323.37 1158.09 317.28 1165.12 317.28"/>
    </g>
  </g>
  <g>
    <g>
      <path class="cls-4" d="m41.61,90.95v9.59H2.53v-7.02c4.29-4.68,8.81-9.13,12.64-13.1,8.89-9.13,12.4-14.43,12.4-22.54,0-7.33-3.67-11.93-9.67-11.93-.94,0-1.95.08-2.96.31l-1.72,7.72c-.86,5.3-3.43,6.55-5.85,6.55-2.26,0-4.13-1.25-5.07-3.28.7-9.05,9.52-13.96,19.97-13.96,12.32,0,18.02,6.47,18.02,15.29,0,8.11-6.63,15.21-21.53,24.96-2.65,1.87-6.08,4.6-9.67,7.41h32.53Z"/>
      <path class="cls-4" d="m93.63,57.8h-4.45l-3.59-12.48h-16.46c-.16,7.8-.16,15.83-.16,24.1h10.69l1.17-8.66h3.9v20.12h-3.9l-1.09-8.66h-10.76v.23c0,8.5,0,16.61.16,24.57l8.35.86v2.65h-28.94v-2.65l7.02-.7c.23-7.88.23-15.91.23-24.02v-3.43c0-8.11,0-16.15-.23-24.18l-7.02-.62v-2.65h45.24l-.16,15.52Z"/>
    </g>
    <g>
      <path class="cls-4" d="m11.92,17.49c-.89,2.26-2.61,4.74-4.84,6.62.13.03.22.13.38.22,2.48,2.04,6.3,2.51,13.21,2.48,3.69,0,6.78-.03,10.5-.22v.38c-1.53.32-2.39,1.66-2.58,3.12h-9.17c-6.84,0-9.68-1.31-12.38-4.62-.45-.57-.8-.51-1.08.06-.54.96-1.46,2.67-2.16,4.3.06.29-.06.51-.29.64l-2.51-3.63c1.43-.73,3.5-2.13,4.62-2.67,1.18-2.04,2.1-4.68,2.51-6.94h-1.91l-1.18,1.02-2.96-2.07c.32-.22.8-.45,1.27-.6,1.05-1.5,2.42-3.63,3.31-5.19H1.73l-.29-.92h5.28l1.62-1.62,3.18,2.93c-.29.32-.92.48-1.69.51-.83,1.37-2.2,3.5-3.25,5.03h1.37l1.85-1.88,2.93,2.32V3.9l2.55.57c1.11-1.21,2.26-2.55,2.93-3.37l4.01,2.42c-.13.29-.48.41-1.21.25-.29.13-.6.29-.95.41l3.25,1.27h2.45l1.5-1.75,3.41,2.55c-.22.29-.67.54-1.34.7v11.75c0,2.29-.45,3.56-3.88,3.92-.06-1.02-.16-1.88-.48-2.36-.32-.48-.76-.8-1.78-1.02v5.73c0,.22-1.02.99-2.74.99h-.57V4.28c-1.11.45-2.51.92-3.82,1.4v11.81c1.02-.41,2.1-.86,3.18-1.34l.13.32c-.83,1.02-2.51,2.99-4.55,5.09-.32.73-.83,1.18-1.24,1.4l-1.94-4.14c.96-.54,1.11-.8,1.11-1.5-.19.1-.45.13-.83.16ZM2.66,1.57c9.07.41,6.37,7.32,2.8,5.09-.38-1.75-1.78-3.76-3.06-4.93l.25-.16Zm20.53,4.81v12.38c.38.03,1.91.13,2.36.13.41,0,.54-.16.54-.54V6.38h-2.9Z"/>
      <path class="cls-4" d="m56.19,17.46c.16,1.78.41,3.5.86,5.03.64-1.37,1.08-2.71,1.4-4.01l3.95,1.37c-.16.35-.41.51-1.21.48-.7,1.66-1.66,3.37-2.96,4.93.48.8,1.05,1.46,1.72,1.97.35.25.54.25.73-.16.35-.67.86-2.04,1.21-3.12l.35.03-.32,4.07c.89,1.21.99,1.69.6,2.23-.83,1.21-2.74.48-3.95-.38-.96-.67-1.75-1.5-2.42-2.45-1.46,1.34-3.25,2.51-5.32,3.34l-.25-.38c1.85-1.24,3.37-2.86,4.62-4.68-1.11-2.29-1.69-5.16-2.04-8.28h-4.27v.29c5.67.1,4.2,4.01,2.04,2.86-.35-.83-1.24-1.75-2.04-2.36v2.48c0,.19-.86.76-2.23.76h-.48v-2.1c-1.11.86-2.42,1.59-3.72,2.2l-.32-.48c1.21-1.05,2.2-2.32,2.96-3.66h-2.67l-.25-.89h4.01v-1.31c-1.18.03-2.39.06-3.47,0l-.1-.54c2.51-.45,5.67-1.46,7.35-2.29h-7.23l-.25-.89h7.42v-2.29h-5.63l-.25-.89h5.89v-1.97h-6.49l-.19-.73c-.25.22-.7.45-1.21.54v19.1c-.03.25-1.46.95-2.51.95h-.45v-2.74h-2.16v3.31c0,.22-.92.96-2.45.96h-.51V3.45l3.37,1.31h1.43l1.46-1.69,3.02,2.39h4.87c-.19-.06-.41-.19-.64-.35-.16-1.34-.96-2.83-1.66-3.72l.25-.19c5.35.57,5.09,3.6,3.44,4.27h3.5c.41-1.34.73-3.15.89-4.42l4.62,1.11c-.1.38-.48.64-1.15.64-.86.86-2.13,1.85-3.44,2.67h3.44l1.69-2.13s1.97,1.46,3.18,2.55c-.1.35-.41.51-.86.51h-3.69c.38.29,1.94,1.46,2.93,2.36-.06.35-.41.51-.86.51h-6.27v2.29h4.58l1.66-2.07s1.88,1.43,3.06,2.45c-.1.35-.38.51-.83.51h-11.87l2.42,2.61c-.35.25-.92.22-1.65-.13-.57.06-1.24.16-1.94.22v1.43h4.17c-.13-1.31-.22-2.64-.32-4.01l4.2.38c0,.1-.03.19-.1.29,2.9.06,3.76,1.11,3.56,1.97l.19-.25s1.34,1.15,2.13,2c-.1.35-.38.51-.8.51h-5.76Zm-19.29-11.78v7.99h2.16v-7.99h-2.16Zm2.16,16.9v-8.02h-2.16v8.02h2.16Zm13.53,2.93c-.22.25-.57.41-1.18.48-.32,2.36-.8,3.66-1.91,4.3-.73.41-1.66.6-2.8.6,0-.67-.1-1.34-.45-1.69-.32-.35-.96-.6-1.78-.76v-.48c.8.06,2.1.13,2.61.13.41,0,.64-.03.83-.16.29-.22.6-.99.8-2.32h-2.23l-1.11,1.08-2.64-1.75c.32-.22.73-.45,1.15-.64.19-.45.32-.92.48-1.31h-1.62l-.25-.92h6.84l1.3-1.62s1.5,1.15,2.42,2.04c-.06.35-.35.51-.8.51h-4.9c-.19.51-.48,1.15-.7,1.72h1.88l1.37-1.34,2.71,2.13Zm.89-17.16h2.51l1.53-1.97h-4.04v1.97Zm6.4,7.64c-.48.29-1.15.35-1.81-.1-.22-.86-.86-1.85-1.43-2.39-.16.13-.38.22-.7.25.03.95.1,1.85.16,2.8h3.37l.41-.57Z"/>
      <path class="cls-4" d="m92.38,20.35s1.66,1.31,2.71,2.26c-.1.35-.41.51-.83.51h-4.27c-.35,1.15-.89,2.2-1.91,3.15,8.82,1.88,4.62,5.73,1.46,4.36-1.15-.76-2.77-1.59-4.71-2.36-2.36,1.02-5.86,1.88-11.04,2.58l-.19-.54c4.01-.92,6.78-1.91,8.72-2.96-1.85-.6-3.88-1.11-6.05-1.56l.06-.03c.48-.64,1.05-1.62,1.66-2.64h-3.85l-.25-.89h4.58c.57-1.08,1.08-2.1,1.4-2.83h-1.05v.83c0,.29-1.5.95-2.83.95h-.45v-7.61l.83.29v-4.52h-1.21l.03.03c-.06.35-.38.51-.8.51h-2.9v1.97c5.67,2.86,2.99,7.13.92,5.09.06-1.3-.38-2.9-.92-4.14v16.93c0,.38-1.4,1.18-2.58,1.18h-.64v-12.57c-.92,1.85-2.07,3.5-3.37,5.06l-.41-.38c1.81-3.63,2.9-8.53,3.47-13.15h-2.99l-.25-.92h3.56V1l4.39.45c-.06.45-.32.76-1.18.89v6.62h.03l1.31-1.97s1.05.95,1.88,1.85l-.13-.41h1.78V3.9l3.44,1.34h2.51V1.16l4.65.41c-.1.45-.35.76-1.18.89v2.77h2.36l1.46-1.46,3.06,2.23c-.16.19-.51.38-.95.48v1.69l1.05-1.46s1.4,1.24,2.2,2.13c-.1.35-.38.51-.76.51h-2.48v3.31c0,.25-1.62.99-2.74.99h-.57v-1.11h-2.61v2.42h3.6l1.5-1.56,3.15,2.32c-.16.19-.51.41-1.02.54v3.15c-.03.25-1.66.92-2.77.92h-.57v-.92h-7.93l2.96.6c-.1.35-.38.67-1.43.7-.25.45-.57.96-.89,1.53h4.14c.16-.64.22-1.31.29-1.97l4.71.38c-.06.38-.41.73-1.11.83-.06.25-.1.51-.16.76h.67l1.46-1.88Zm-15.72-6.33l2.36.92h3.31v-2.42h-2.67v.51c0,.29-1.46.99-2.83.99h-.16Zm2.16,4.49h3.5v-2.64h-3.5v2.64Zm.83-10.09h2.67v-2.26h-2.67v2.26Zm0,.92v2.26h2.67v-2.26h-2.67Zm2.16,13.78c-.48.76-.92,1.56-1.4,2.23,1.56.1,2.96.22,4.2.35.83-.8,1.34-1.66,1.66-2.58h-4.46Zm3.98-16.97v2.26h2.61v-2.26h-2.61Zm2.61,3.18h-2.61v2.26h2.61v-2.26Zm-2.61,6.52v2.64h3.88v-2.64h-3.88Z"/>
    </g>
  </g>
</svg>